<?xml version="1.0" standalone="no"?>
<!DOCTYPE svg PUBLIC "-//W3C//DTD SVG 20010904//EN"
 "http://www.w3.org/TR/2001/REC-SVG-20010904/DTD/svg10.dtd">
<svg version="1.0" xmlns="http://www.w3.org/2000/svg"
 width="560.000000pt" height="560.000000pt" viewBox="0 0 560.000000 560.000000"
 preserveAspectRatio="xMidYMid meet">
<metadata>
Created by potrace 1.11, written by Peter Selinger 2001-2013
</metadata>
<g transform="translate(0.000000,560.000000) scale(0.100000,-0.100000)"
fill="#000000" stroke="none">
<path d="M3995 4639 c-55 -19 -110 -44 -126 -59 -42 -38 -71 -60 -80 -60 -5 0
-9 -7 -9 -15 0 -8 -4 -15 -9 -15 -5 0 -14 -13 -21 -30 -11 -26 -21 -41 -60
-87 -5 -7 -10 -16 -10 -20 -1 -4 -13 -17 -27 -28 -14 -11 -33 -27 -42 -35 -9
-9 -44 -30 -76 -47 -33 -17 -87 -47 -119 -67 -33 -20 -63 -36 -66 -36 -4 0
-12 -11 -18 -24 -9 -20 -8 -27 5 -38 21 -17 191 -25 308 -15 138 13 182 6 217
-32 26 -27 31 -43 36 -97 5 -64 -12 -144 -30 -144 -4 0 -8 -5 -8 -11 0 -20
-71 -80 -123 -103 -29 -13 -119 -45 -202 -71 -252 -78 -366 -123 -415 -161 -8
-7 -37 -24 -65 -39 -27 -15 -87 -52 -133 -81 -45 -30 -87 -54 -92 -54 -6 0
-10 -4 -10 -10 0 -5 -7 -10 -15 -10 -8 0 -15 -4 -15 -8 0 -5 -12 -15 -27 -23
-15 -8 -34 -20 -43 -27 -39 -34 -136 -101 -146 -102 -7 0 -14 -7 -18 -15 -3
-8 -9 -15 -14 -15 -10 0 -39 -24 -114 -92 -23 -21 -45 -38 -49 -38 -4 0 -11
-9 -14 -20 -8 -25 -105 -122 -142 -141 -15 -7 -30 -16 -33 -20 -3 -3 -23 -16
-45 -29 -22 -13 -42 -26 -45 -30 -11 -12 -90 -60 -100 -60 -5 0 -10 -4 -10 -9
0 -5 -26 -26 -57 -47 -32 -22 -62 -42 -68 -47 -32 -24 -96 -63 -141 -86 -29
-14 -114 -58 -190 -97 -77 -39 -162 -79 -189 -89 -28 -11 -63 -27 -80 -36 -16
-9 -54 -25 -83 -35 -54 -19 -122 -73 -122 -98 0 -23 29 -46 56 -46 14 0 97 16
184 35 166 37 263 44 293 21 31 -23 21 -70 -24 -118 -22 -23 -57 -63 -77 -86
-20 -24 -49 -57 -65 -73 -15 -16 -27 -34 -27 -39 0 -6 -7 -10 -15 -10 -8 0
-15 -5 -15 -11 0 -11 -15 -28 -162 -183 -43 -44 -78 -84 -78 -88 0 -3 -13 -20
-30 -36 -16 -17 -30 -35 -30 -40 0 -6 -3 -12 -7 -14 -5 -1 -24 -25 -43 -53
-35 -51 -47 -66 -88 -113 -13 -15 -32 -44 -43 -64 -11 -21 -23 -38 -28 -38
-13 0 -61 -99 -61 -125 0 -53 64 -61 210 -27 47 11 112 25 145 32 50 10 67 20
107 60 27 27 48 54 48 60 0 7 10 25 23 40 12 15 29 37 37 50 8 12 20 28 25 34
47 52 95 116 95 125 0 6 4 11 9 11 8 0 91 134 91 146 0 5 92 146 100 154 14
14 70 99 70 107 0 4 9 14 20 21 11 7 20 19 20 27 0 8 5 15 11 15 5 0 17 15 25
32 30 63 39 78 46 78 4 0 15 15 24 33 55 109 120 167 189 167 35 0 143 -31
179 -51 10 -6 54 -14 97 -19 43 -4 86 -13 95 -21 18 -14 16 -54 -6 -131 -13
-43 -12 -51 10 -107 14 -34 27 -61 31 -61 3 0 22 -51 42 -112 20 -62 63 -197
97 -299 103 -320 94 -378 -68 -423 -42 -12 -77 -26 -79 -32 -6 -19 47 -34 125
-34 92 0 153 -16 247 -62 96 -48 167 -74 254 -93 91 -20 115 -9 126 56 4 23
14 57 21 75 31 75 1 154 -71 189 -41 19 -65 17 -170 -14 -104 -31 -154 -27
-201 15 -45 42 -64 85 -121 284 -9 30 -33 111 -54 180 -88 287 -91 368 -16
433 58 50 168 85 229 72 41 -10 90 -59 114 -119 10 -25 22 -46 27 -46 4 0 7
-6 7 -13 0 -11 11 -26 73 -97 8 -8 27 -33 43 -55 16 -22 32 -44 37 -50 23 -31
57 -87 57 -96 0 -5 11 -19 25 -31 14 -12 25 -28 25 -35 0 -7 4 -13 10 -13 5 0
19 -19 31 -42 31 -61 22 -112 -28 -155 -21 -18 -43 -32 -49 -33 -6 0 -21 -11
-34 -25 -21 -23 -22 -27 -9 -41 24 -23 238 -53 384 -54 56 0 126 -7 158 -15
83 -22 102 -19 131 16 21 25 26 41 26 87 0 70 -29 137 -65 154 -22 10 -35 9
-73 -6 -79 -31 -155 -46 -197 -39 -49 8 -110 51 -144 101 -14 20 -30 43 -37
49 -7 7 -22 29 -35 50 -13 21 -27 43 -31 48 -5 6 -23 33 -41 60 -17 28 -37 56
-44 63 -7 7 -13 16 -13 20 0 4 -10 19 -23 34 -32 37 -52 65 -92 128 -48 76
-58 90 -73 106 -19 20 -25 76 -9 96 13 16 122 58 150 58 8 0 43 9 78 21 48 15
108 22 244 29 179 9 238 17 325 46 50 17 150 74 150 86 0 4 5 8 12 8 14 0 109
73 157 121 20 19 44 38 54 42 9 3 17 11 17 16 0 5 9 20 20 33 99 117 120 145
120 155 0 6 3 13 8 15 4 2 23 23 42 48 19 25 37 47 41 50 12 9 67 103 98 165
53 106 70 148 94 235 43 147 50 227 50 515 0 287 -13 419 -54 547 -21 66 -62
138 -79 138 -6 0 -10 5 -10 10 0 19 -83 108 -146 158 -96 76 -284 115 -389 81z"/>
</g>
</svg>
